<mxfile host="65bd71144e">
    <diagram id="6ClvnRsvjgBBYZQqGPL6" name="Page-1">
        <mxGraphModel dx="649" dy="294" grid="1" gridSize="10" guides="1" tooltips="1" connect="1" arrows="1" fold="1" page="1" pageScale="1" pageWidth="827" pageHeight="1169" math="0" shadow="0">
            <root>
                <mxCell id="0"/>
                <mxCell id="1" parent="0"/>
                <mxCell id="7" value="バックエンド&lt;br&gt;(API)" style="rounded=1;whiteSpace=wrap;html=1;" parent="1" vertex="1">
                    <mxGeometry x="490" y="220" width="120" height="60" as="geometry"/>
                </mxCell>
                <mxCell id="14" value="Spotify&lt;br&gt;API" style="shape=cylinder3;whiteSpace=wrap;html=1;boundedLbl=1;backgroundOutline=1;size=15;" parent="1" vertex="1">
                    <mxGeometry x="520" y="40" width="60" height="80" as="geometry"/>
                </mxCell>
                <mxCell id="18" value="6. (web) 外部認証問合せ&#10;9. (外部認証) ユーザデータ提供 or エラー" style="text;strokeColor=none;fillColor=none;align=left;verticalAlign=middle;spacingLeft=4;spacingRight=4;overflow=hidden;points=[[0,0.5],[1,0.5]];portConstraint=eastwest;rotatable=0;" parent="1" vertex="1">
                    <mxGeometry x="310" y="140" width="240" height="60" as="geometry"/>
                </mxCell>
                <mxCell id="25" value="WEBアプリ&lt;br&gt;(インターフェース)" style="rounded=1;whiteSpace=wrap;html=1;" parent="1" vertex="1">
                    <mxGeometry x="240" y="220" width="120" height="60" as="geometry"/>
                </mxCell>
                <mxCell id="26" value="外部認証&lt;br&gt;システム" style="rounded=1;whiteSpace=wrap;html=1;" parent="1" vertex="1">
                    <mxGeometry x="240" y="50" width="120" height="60" as="geometry"/>
                </mxCell>
                <mxCell id="27" value="7. (外部認証) 認証許可受付&#10;8. (user) 許可 or 拒否" style="text;strokeColor=none;fillColor=none;align=left;verticalAlign=middle;spacingLeft=4;spacingRight=4;overflow=hidden;points=[[0,0.5],[1,0.5]];portConstraint=eastwest;rotatable=0;" parent="1" vertex="1">
                    <mxGeometry x="50" y="80" width="160" height="60" as="geometry"/>
                </mxCell>
                <mxCell id="31" value="1. (user)webページ訪問&#10;2. (web) ログインページ表示&#10;3. (user) 新規登録ページ遷移&#10;4. (web) 新規登録ページ表示&#10;5. (user) 外部ログイン実行&#10;14. (web) 情報登録ページ表示&#10;15. (user) 登録情報送信&#10;24. (web) ユーザーページの表示&#10;25. (user) ログアウト実行&#10;26. (web) ログアウト画面表示&#10;27. (user) ログイン画面遷移&#10;28. (web) ログイン画面表示&#10;&#10;" style="text;strokeColor=none;fillColor=none;align=left;verticalAlign=middle;spacingLeft=4;spacingRight=4;overflow=hidden;points=[[0,0.5],[1,0.5]];portConstraint=eastwest;rotatable=0;" parent="1" vertex="1">
                    <mxGeometry x="40" y="230" width="190" height="170" as="geometry"/>
                </mxCell>
                <mxCell id="32" value="" style="shape=actor;whiteSpace=wrap;html=1;" parent="1" vertex="1">
                    <mxGeometry x="40" y="150" width="40" height="60" as="geometry"/>
                </mxCell>
                <mxCell id="33" value="" style="endArrow=classic;startArrow=classic;html=1;exitX=1;exitY=0.75;exitDx=0;exitDy=0;entryX=0;entryY=0.5;entryDx=0;entryDy=0;" parent="1" source="32" target="25" edge="1">
                    <mxGeometry width="50" height="50" relative="1" as="geometry">
                        <mxPoint x="90" y="200" as="sourcePoint"/>
                        <mxPoint x="160" y="155" as="targetPoint"/>
                    </mxGeometry>
                </mxCell>
                <mxCell id="34" value="" style="endArrow=classic;startArrow=classic;html=1;exitX=0.9;exitY=0.5;exitDx=0;exitDy=0;entryX=0;entryY=0.5;entryDx=0;entryDy=0;exitPerimeter=0;" parent="1" source="32" target="26" edge="1">
                    <mxGeometry width="50" height="50" relative="1" as="geometry">
                        <mxPoint x="110" y="150" as="sourcePoint"/>
                        <mxPoint x="270" y="205" as="targetPoint"/>
                    </mxGeometry>
                </mxCell>
                <mxCell id="36" value="" style="endArrow=classic;startArrow=classic;html=1;exitX=0.5;exitY=0;exitDx=0;exitDy=0;entryX=0.5;entryY=1;entryDx=0;entryDy=0;" parent="1" source="25" target="26" edge="1">
                    <mxGeometry width="50" height="50" relative="1" as="geometry">
                        <mxPoint x="85.99999999999989" y="190" as="sourcePoint"/>
                        <mxPoint x="250" y="90" as="targetPoint"/>
                    </mxGeometry>
                </mxCell>
                <mxCell id="37" value="" style="endArrow=classic;startArrow=classic;html=1;exitX=1;exitY=0.5;exitDx=0;exitDy=0;entryX=0;entryY=0.5;entryDx=0;entryDy=0;" parent="1" source="25" target="7" edge="1">
                    <mxGeometry width="50" height="50" relative="1" as="geometry">
                        <mxPoint x="310" y="230" as="sourcePoint"/>
                        <mxPoint x="310" y="120.00000000000006" as="targetPoint"/>
                    </mxGeometry>
                </mxCell>
                <mxCell id="38" value="" style="endArrow=classic;startArrow=classic;html=1;exitX=0.5;exitY=0;exitDx=0;exitDy=0;entryX=0.5;entryY=1;entryDx=0;entryDy=0;entryPerimeter=0;" parent="1" source="7" target="14" edge="1">
                    <mxGeometry width="50" height="50" relative="1" as="geometry">
                        <mxPoint x="470" y="179.55" as="sourcePoint"/>
                        <mxPoint x="600" y="179.55" as="targetPoint"/>
                    </mxGeometry>
                </mxCell>
                <mxCell id="39" value="新規登録処理概要" style="text;strokeColor=none;fillColor=none;html=1;fontSize=24;fontStyle=1;verticalAlign=middle;align=center;" parent="1" vertex="1">
                    <mxGeometry x="70" y="20" width="100" height="40" as="geometry"/>
                </mxCell>
                <mxCell id="41" value="" style="shape=actor;whiteSpace=wrap;html=1;" parent="1" vertex="1">
                    <mxGeometry x="40" y="150" width="40" height="60" as="geometry"/>
                </mxCell>
                <mxCell id="42" value="7. (外部認証) 認証許可受付&#10;8. (user) 許可 or 拒否" style="text;strokeColor=none;fillColor=none;align=left;verticalAlign=middle;spacingLeft=4;spacingRight=4;overflow=hidden;points=[[0,0.5],[1,0.5]];portConstraint=eastwest;rotatable=0;" parent="1" vertex="1">
                    <mxGeometry x="50" y="80" width="160" height="60" as="geometry"/>
                </mxCell>
                <mxCell id="43" value="外部認証&lt;br&gt;システム" style="rounded=1;whiteSpace=wrap;html=1;" parent="1" vertex="1">
                    <mxGeometry x="240" y="50" width="120" height="60" as="geometry"/>
                </mxCell>
                <mxCell id="44" value="WEBアプリ&lt;br&gt;(インターフェース)" style="rounded=1;whiteSpace=wrap;html=1;" parent="1" vertex="1">
                    <mxGeometry x="240" y="220" width="120" height="60" as="geometry"/>
                </mxCell>
                <UserObject label="想定: 新規登録者" placeholders="1" name="Variable" id="45">
                    <mxCell style="text;html=1;strokeColor=none;fillColor=none;align=center;verticalAlign=middle;whiteSpace=wrap;overflow=hidden;" parent="1" vertex="1">
                        <mxGeometry x="90" y="50" width="100" height="20" as="geometry"/>
                    </mxCell>
                </UserObject>
                <mxCell id="46" value="1. (user)webページ訪問&#10;2. (web) ログインページ表示&#10;3. (user) 外部ログイン実行&#10;16. (web) ユーザーページの表示&#10;17. (user) ログアウト実行&#10;18. (web) ログアウト画面表示&#10;19. (user) ログイン画面遷移&#10;20. (web) ログイン画面表示&#10;&#10;" style="text;strokeColor=none;fillColor=none;align=left;verticalAlign=middle;spacingLeft=4;spacingRight=4;overflow=hidden;points=[[0,0.5],[1,0.5]];portConstraint=eastwest;rotatable=0;" parent="1" vertex="1">
                    <mxGeometry x="40" y="775" width="190" height="170" as="geometry"/>
                </mxCell>
                <mxCell id="47" value="" style="shape=actor;whiteSpace=wrap;html=1;" parent="1" vertex="1">
                    <mxGeometry x="40" y="695" width="40" height="60" as="geometry"/>
                </mxCell>
                <mxCell id="48" value="5. (外部認証) 認証許可受付&#10;6. (user) 許可 or 拒否" style="text;strokeColor=none;fillColor=none;align=left;verticalAlign=middle;spacingLeft=4;spacingRight=4;overflow=hidden;points=[[0,0.5],[1,0.5]];portConstraint=eastwest;rotatable=0;" parent="1" vertex="1">
                    <mxGeometry x="50" y="625" width="160" height="60" as="geometry"/>
                </mxCell>
                <mxCell id="49" value="外部認証&lt;br&gt;システム" style="rounded=1;whiteSpace=wrap;html=1;" parent="1" vertex="1">
                    <mxGeometry x="240" y="595" width="120" height="60" as="geometry"/>
                </mxCell>
                <mxCell id="50" value="WEBアプリ&lt;br&gt;(インターフェース)" style="rounded=1;whiteSpace=wrap;html=1;" parent="1" vertex="1">
                    <mxGeometry x="240" y="765" width="120" height="60" as="geometry"/>
                </mxCell>
                <mxCell id="51" value="類似度API" style="rounded=1;whiteSpace=wrap;html=1;" parent="1" vertex="1">
                    <mxGeometry x="490" y="765" width="120" height="60" as="geometry"/>
                </mxCell>
                <mxCell id="52" value="Spotify&lt;br&gt;API" style="shape=cylinder3;whiteSpace=wrap;html=1;boundedLbl=1;backgroundOutline=1;size=15;" parent="1" vertex="1">
                    <mxGeometry x="520" y="585" width="60" height="80" as="geometry"/>
                </mxCell>
                <mxCell id="53" value="4. (web) 外部ログイン問合せ&#10;7. (外部認証) ユーザデータ提供 or エラー" style="text;strokeColor=none;fillColor=none;align=left;verticalAlign=middle;spacingLeft=4;spacingRight=4;overflow=hidden;points=[[0,0.5],[1,0.5]];portConstraint=eastwest;rotatable=0;" parent="1" vertex="1">
                    <mxGeometry x="310" y="685" width="240" height="60" as="geometry"/>
                </mxCell>
                <mxCell id="55" value="ログイン処理概要" style="text;strokeColor=none;fillColor=none;html=1;fontSize=24;fontStyle=1;verticalAlign=middle;align=center;" parent="1" vertex="1">
                    <mxGeometry x="61" y="520" width="100" height="40" as="geometry"/>
                </mxCell>
                <UserObject label="想定: 登録済みuser&amp;nbsp;" placeholders="1" name="Variable" id="56">
                    <mxCell style="text;html=1;strokeColor=none;fillColor=none;align=center;verticalAlign=middle;whiteSpace=wrap;overflow=hidden;" parent="1" vertex="1">
                        <mxGeometry x="80" y="550" width="130" height="20" as="geometry"/>
                    </mxCell>
                </UserObject>
                <mxCell id="57" value="10. (web) 登録されているか問合せ&#10;13. (API) 登録されていればTrue&#10;16. (web) 新しいユーザレコードを登録&#10;23. (API) 新しいユーザの類似性の高いユーザの提供&#10;" style="text;strokeColor=none;fillColor=none;align=left;verticalAlign=middle;spacingLeft=4;spacingRight=4;overflow=hidden;points=[[0,0.5],[1,0.5]];portConstraint=eastwest;rotatable=0;" parent="1" vertex="1">
                    <mxGeometry x="272" y="290" width="300" height="70" as="geometry"/>
                </mxCell>
                <mxCell id="58" value="17. (API) 類似アーティストの検索&#10;18. (Spotify) データの提供" style="text;strokeColor=none;fillColor=none;align=left;verticalAlign=middle;spacingLeft=4;spacingRight=4;overflow=hidden;points=[[0,0.5],[1,0.5]];portConstraint=eastwest;rotatable=0;" parent="1" vertex="1">
                    <mxGeometry x="560" y="140" width="195" height="60" as="geometry"/>
                </mxCell>
                <mxCell id="60" value="登録user&lt;br&gt;DB" style="shape=cylinder3;whiteSpace=wrap;html=1;boundedLbl=1;backgroundOutline=1;size=15;" parent="1" vertex="1">
                    <mxGeometry x="572" y="390" width="60" height="80" as="geometry"/>
                </mxCell>
                <mxCell id="62" value="fav_artist&lt;br&gt;レコード" style="shape=cylinder3;whiteSpace=wrap;html=1;boundedLbl=1;backgroundOutline=1;size=15;" parent="1" vertex="1">
                    <mxGeometry x="730" y="755" width="60" height="80" as="geometry"/>
                </mxCell>
                <mxCell id="63" value="" style="endArrow=classic;startArrow=classic;html=1;exitX=0.5;exitY=0;exitDx=0;exitDy=0;exitPerimeter=0;entryX=0.5;entryY=1;entryDx=0;entryDy=0;" parent="1" source="60" target="7" edge="1">
                    <mxGeometry width="50" height="50" relative="1" as="geometry">
                        <mxPoint x="765" y="380" as="sourcePoint"/>
                        <mxPoint x="700" y="265" as="targetPoint"/>
                    </mxGeometry>
                </mxCell>
                <mxCell id="64" value="" style="endArrow=classic;startArrow=classic;html=1;entryX=1;entryY=0.5;entryDx=0;entryDy=0;exitX=0;exitY=0.5;exitDx=0;exitDy=0;exitPerimeter=0;" parent="1" source="62" edge="1">
                    <mxGeometry width="50" height="50" relative="1" as="geometry">
                        <mxPoint x="710" y="935" as="sourcePoint"/>
                        <mxPoint x="610" y="795" as="targetPoint"/>
                    </mxGeometry>
                </mxCell>
                <mxCell id="69" value="" style="endArrow=classic;startArrow=classic;html=1;exitX=0.5;exitY=0;exitDx=0;exitDy=0;entryX=0.5;entryY=1;entryDx=0;entryDy=0;entryPerimeter=0;" parent="1" source="50" edge="1">
                    <mxGeometry width="50" height="50" relative="1" as="geometry">
                        <mxPoint x="299.55" y="755" as="sourcePoint"/>
                        <mxPoint x="299.55" y="655" as="targetPoint"/>
                    </mxGeometry>
                </mxCell>
                <mxCell id="72" value="" style="endArrow=classic;startArrow=classic;html=1;exitX=0.9;exitY=0.5;exitDx=0;exitDy=0;entryX=0;entryY=0.5;entryDx=0;entryDy=0;exitPerimeter=0;" parent="1" source="47" target="49" edge="1">
                    <mxGeometry width="50" height="50" relative="1" as="geometry">
                        <mxPoint x="140" y="735" as="sourcePoint"/>
                        <mxPoint x="139.54999999999995" y="625" as="targetPoint"/>
                    </mxGeometry>
                </mxCell>
                <mxCell id="73" value="" style="endArrow=classic;startArrow=classic;html=1;exitX=0.03;exitY=0.648;exitDx=0;exitDy=0;entryX=1;entryY=0.75;entryDx=0;entryDy=0;exitPerimeter=0;" parent="1" source="50" target="47" edge="1">
                    <mxGeometry width="50" height="50" relative="1" as="geometry">
                        <mxPoint x="190.45" y="795" as="sourcePoint"/>
                        <mxPoint x="189.99999999999994" y="685" as="targetPoint"/>
                    </mxGeometry>
                </mxCell>
                <mxCell id="75" value="" style="endArrow=classic;startArrow=classic;html=1;entryX=1;entryY=0.5;entryDx=0;entryDy=0;" parent="1" source="51" target="50" edge="1">
                    <mxGeometry width="50" height="50" relative="1" as="geometry">
                        <mxPoint x="490" y="794.55" as="sourcePoint"/>
                        <mxPoint x="370" y="794.55" as="targetPoint"/>
                    </mxGeometry>
                </mxCell>
                <mxCell id="76" value="fav_artist&lt;br&gt;レコード" style="shape=cylinder3;whiteSpace=wrap;html=1;boundedLbl=1;backgroundOutline=1;size=15;" parent="1" vertex="1">
                    <mxGeometry x="755" y="210" width="60" height="80" as="geometry"/>
                </mxCell>
                <mxCell id="78" value="11. (API) ユーザのレコード問い合わせ&#10;12. (favDB) あれば返す" style="text;strokeColor=none;fillColor=none;align=left;verticalAlign=middle;spacingLeft=4;spacingRight=4;overflow=hidden;points=[[0,0.5],[1,0.5]];portConstraint=eastwest;rotatable=0;" parent="1" vertex="1">
                    <mxGeometry x="597" y="715" width="230" height="60" as="geometry"/>
                </mxCell>
                <mxCell id="80" value="" style="endArrow=classic;startArrow=classic;html=1;exitX=1;exitY=0.5;exitDx=0;exitDy=0;entryX=0;entryY=0.5;entryDx=0;entryDy=0;entryPerimeter=0;" parent="1" target="76" edge="1">
                    <mxGeometry width="50" height="50" relative="1" as="geometry">
                        <mxPoint x="610" y="249.55" as="sourcePoint"/>
                        <mxPoint x="720" y="250" as="targetPoint"/>
                    </mxGeometry>
                </mxCell>
                <mxCell id="81" value="19. (API) レコード登録&#10;20. (favDB) レコード返却" style="text;strokeColor=none;fillColor=none;align=left;verticalAlign=middle;spacingLeft=4;spacingRight=4;overflow=hidden;points=[[0,0.5],[1,0.5]];portConstraint=eastwest;rotatable=0;" parent="1" vertex="1">
                    <mxGeometry x="610" y="190" width="195" height="60" as="geometry"/>
                </mxCell>
                <mxCell id="83" value="11. (API) 登録されているか問合せ&#10;12. (登録DB) 登録されていればTrue&#10;21. (API) ユーザ・表示名の登録&#10;22. (登録DB) 登録完了ならTrue" style="text;strokeColor=none;fillColor=none;align=left;verticalAlign=middle;spacingLeft=4;spacingRight=4;overflow=hidden;points=[[0,0.5],[1,0.5]];portConstraint=eastwest;rotatable=0;" parent="1" vertex="1">
                    <mxGeometry x="608" y="290" width="208" height="90" as="geometry"/>
                </mxCell>
                <UserObject label="想定: 登録済みuser&amp;nbsp;" placeholders="1" name="Variable" id="95">
                    <mxCell style="text;html=1;strokeColor=none;fillColor=none;align=center;verticalAlign=middle;whiteSpace=wrap;overflow=hidden;" parent="1" vertex="1">
                        <mxGeometry x="80" y="550" width="130" height="20" as="geometry"/>
                    </mxCell>
                </UserObject>
                <mxCell id="96" value="ログイン処理概要" style="text;strokeColor=none;fillColor=none;html=1;fontSize=24;fontStyle=1;verticalAlign=middle;align=center;" parent="1" vertex="1">
                    <mxGeometry x="61" y="520" width="100" height="40" as="geometry"/>
                </mxCell>
                <mxCell id="97" value="5. (外部認証) 認証許可受付&#10;6. (user) 許可 or 拒否" style="text;strokeColor=none;fillColor=none;align=left;verticalAlign=middle;spacingLeft=4;spacingRight=4;overflow=hidden;points=[[0,0.5],[1,0.5]];portConstraint=eastwest;rotatable=0;" parent="1" vertex="1">
                    <mxGeometry x="50" y="625" width="160" height="60" as="geometry"/>
                </mxCell>
                <mxCell id="98" value="" style="endArrow=classic;startArrow=classic;html=1;exitX=0.03;exitY=0.648;exitDx=0;exitDy=0;entryX=1;entryY=0.75;entryDx=0;entryDy=0;exitPerimeter=0;" parent="1" source="104" target="99" edge="1">
                    <mxGeometry width="50" height="50" relative="1" as="geometry">
                        <mxPoint x="190.45" y="795" as="sourcePoint"/>
                        <mxPoint x="189.99999999999994" y="685" as="targetPoint"/>
                    </mxGeometry>
                </mxCell>
                <mxCell id="99" value="" style="shape=actor;whiteSpace=wrap;html=1;" parent="1" vertex="1">
                    <mxGeometry x="40" y="695" width="40" height="60" as="geometry"/>
                </mxCell>
                <mxCell id="101" value="登録user&lt;br&gt;DB" style="shape=cylinder3;whiteSpace=wrap;html=1;boundedLbl=1;backgroundOutline=1;size=15;" parent="1" vertex="1">
                    <mxGeometry x="597" y="930" width="60" height="80" as="geometry"/>
                </mxCell>
                <mxCell id="103" value="" style="endArrow=classic;startArrow=classic;html=1;entryX=0.5;entryY=1;entryDx=0;entryDy=0;exitX=0.5;exitY=0;exitDx=0;exitDy=0;exitPerimeter=0;" parent="1" source="101" edge="1" target="110">
                    <mxGeometry width="50" height="50" relative="1" as="geometry">
                        <mxPoint x="850" y="935" as="sourcePoint"/>
                        <mxPoint x="760" y="835" as="targetPoint"/>
                    </mxGeometry>
                </mxCell>
                <mxCell id="104" value="WEBアプリ&lt;br&gt;(フロントエンド)" style="rounded=1;whiteSpace=wrap;html=1;" parent="1" vertex="1">
                    <mxGeometry x="240" y="765" width="120" height="60" as="geometry"/>
                </mxCell>
                <mxCell id="105" value="" style="endArrow=classic;startArrow=classic;html=1;exitX=0.5;exitY=0;exitDx=0;exitDy=0;entryX=0.5;entryY=1;entryDx=0;entryDy=0;entryPerimeter=0;" parent="1" source="104" edge="1">
                    <mxGeometry width="50" height="50" relative="1" as="geometry">
                        <mxPoint x="299.55" y="755" as="sourcePoint"/>
                        <mxPoint x="299.54999999999995" y="655" as="targetPoint"/>
                    </mxGeometry>
                </mxCell>
                <mxCell id="106" value="外部認証&lt;br&gt;システム" style="rounded=1;whiteSpace=wrap;html=1;" parent="1" vertex="1">
                    <mxGeometry x="240" y="595" width="120" height="60" as="geometry"/>
                </mxCell>
                <mxCell id="107" value="4. (web) 外部ログイン問合せ&#10;7. (外部認証) ユーザデータ提供 or エラー" style="text;strokeColor=none;fillColor=none;align=left;verticalAlign=middle;spacingLeft=4;spacingRight=4;overflow=hidden;points=[[0,0.5],[1,0.5]];portConstraint=eastwest;rotatable=0;" parent="1" vertex="1">
                    <mxGeometry x="310" y="685" width="240" height="60" as="geometry"/>
                </mxCell>
                <mxCell id="108" value="" style="endArrow=classic;startArrow=classic;html=1;entryX=1;entryY=0.5;entryDx=0;entryDy=0;" parent="1" source="110" target="104" edge="1">
                    <mxGeometry width="50" height="50" relative="1" as="geometry">
                        <mxPoint x="490" y="794.55" as="sourcePoint"/>
                        <mxPoint x="370" y="794.55" as="targetPoint"/>
                    </mxGeometry>
                </mxCell>
                <mxCell id="109" value="8. (web) 登録の有無を問合せ&#10;11. (API) 登録されていTrue(エラー)&#10;10. (web) ユーザの類似性の高いユーザ問合せ&#10;15. (API) ユーザの類似性の高いユーザの提供&#10;" style="text;strokeColor=none;fillColor=none;align=left;verticalAlign=middle;spacingLeft=4;spacingRight=4;overflow=hidden;points=[[0,0.5],[1,0.5]];portConstraint=eastwest;rotatable=0;" parent="1" vertex="1">
                    <mxGeometry x="310" y="835" width="260" height="65" as="geometry"/>
                </mxCell>
                <mxCell id="110" value="バックエンド&lt;br&gt;(API)" style="rounded=1;whiteSpace=wrap;html=1;" parent="1" vertex="1">
                    <mxGeometry x="490" y="765" width="120" height="60" as="geometry"/>
                </mxCell>
                <mxCell id="113" value="fav_artist&lt;br&gt;レコード" style="shape=cylinder3;whiteSpace=wrap;html=1;boundedLbl=1;backgroundOutline=1;size=15;" parent="1" vertex="1">
                    <mxGeometry x="730" y="755" width="60" height="80" as="geometry"/>
                </mxCell>
                <mxCell id="114" value="" style="endArrow=classic;startArrow=classic;html=1;entryX=1;entryY=0.5;entryDx=0;entryDy=0;exitX=0;exitY=0.5;exitDx=0;exitDy=0;exitPerimeter=0;" parent="1" source="113" edge="1">
                    <mxGeometry width="50" height="50" relative="1" as="geometry">
                        <mxPoint x="710" y="935" as="sourcePoint"/>
                        <mxPoint x="609.9999999999998" y="795" as="targetPoint"/>
                    </mxGeometry>
                </mxCell>
                <mxCell id="117" value="Spotify&lt;br&gt;API" style="shape=cylinder3;whiteSpace=wrap;html=1;boundedLbl=1;backgroundOutline=1;size=15;" parent="1" vertex="1">
                    <mxGeometry x="525" y="1250" width="60" height="80" as="geometry"/>
                </mxCell>
                <mxCell id="118" value="登録情報変更処理概要" style="text;strokeColor=none;fillColor=none;html=1;fontSize=24;fontStyle=1;verticalAlign=middle;align=center;" parent="1" vertex="1">
                    <mxGeometry x="85" y="1230" width="100" height="40" as="geometry"/>
                </mxCell>
                <mxCell id="119" value="" style="shape=actor;whiteSpace=wrap;html=1;" parent="1" vertex="1">
                    <mxGeometry x="45" y="1405" width="40" height="60" as="geometry"/>
                </mxCell>
                <mxCell id="120" value="登録user&lt;br&gt;DB" style="shape=cylinder3;whiteSpace=wrap;html=1;boundedLbl=1;backgroundOutline=1;size=15;" parent="1" vertex="1">
                    <mxGeometry x="610.5" y="1630" width="60" height="80" as="geometry"/>
                </mxCell>
                <mxCell id="121" value="WEBアプリ&lt;br&gt;(インターフェース)" style="rounded=1;whiteSpace=wrap;html=1;" parent="1" vertex="1">
                    <mxGeometry x="245" y="1475" width="120" height="60" as="geometry"/>
                </mxCell>
                <mxCell id="122" value="外部認証&lt;br&gt;システム" style="rounded=1;whiteSpace=wrap;html=1;" parent="1" vertex="1">
                    <mxGeometry x="245" y="1305" width="120" height="60" as="geometry"/>
                </mxCell>
                <mxCell id="123" value="バックエンド&lt;br&gt;(API)" style="rounded=1;whiteSpace=wrap;html=1;" parent="1" vertex="1">
                    <mxGeometry x="495" y="1475" width="120" height="60" as="geometry"/>
                </mxCell>
                <mxCell id="124" value="fav_artist&lt;br&gt;レコード" style="shape=cylinder3;whiteSpace=wrap;html=1;boundedLbl=1;backgroundOutline=1;size=15;" parent="1" vertex="1">
                    <mxGeometry x="735" y="1465" width="60" height="80" as="geometry"/>
                </mxCell>
                <UserObject label="想定: 登録済みuser&amp;nbsp;" placeholders="1" name="Variable" id="125">
                    <mxCell style="text;html=1;strokeColor=none;fillColor=none;align=center;verticalAlign=middle;whiteSpace=wrap;overflow=hidden;" parent="1" vertex="1">
                        <mxGeometry x="85" y="1270" width="130" height="20" as="geometry"/>
                    </mxCell>
                </UserObject>
                <mxCell id="126" value="1. (user)webページ訪問&#10;2. (web) ログインページ表示&#10;3. (user) 外部ログイン実行&#10;16. (web) ユーザーページの表示&#10;17. (user) 登録情報画面推移&#10;18. (web) 登録情報ページ表示&#10;19. (user) 登録情報変更送信&#10;28. (web) ユーザページの表示(更新)&#10;29. (user) ログアウト実行&#10;30. (web) ログアウト画面表示&#10;31. (user) ログイン画面遷移&#10;32. (web) ログイン画面表示&#10;&#10;" style="text;strokeColor=none;fillColor=none;align=left;verticalAlign=middle;spacingLeft=4;spacingRight=4;overflow=hidden;points=[[0,0.5],[1,0.5]];portConstraint=eastwest;rotatable=0;" parent="1" vertex="1">
                    <mxGeometry x="40" y="1490" width="210" height="170" as="geometry"/>
                </mxCell>
                <mxCell id="127" value="5. (外部認証) 認証許可受付&#10;6. (user) 許可 or 拒否" style="text;strokeColor=none;fillColor=none;align=left;verticalAlign=middle;spacingLeft=4;spacingRight=4;overflow=hidden;points=[[0,0.5],[1,0.5]];portConstraint=eastwest;rotatable=0;" parent="1" vertex="1">
                    <mxGeometry x="55" y="1320" width="160" height="60" as="geometry"/>
                </mxCell>
                <mxCell id="129" value="4. (web) 外部ログイン問合せ&#10;7. (外部認証) ユーザデータ提供 or エラー" style="text;strokeColor=none;fillColor=none;align=left;verticalAlign=middle;spacingLeft=4;spacingRight=4;overflow=hidden;points=[[0,0.5],[1,0.5]];portConstraint=eastwest;rotatable=0;" parent="1" vertex="1">
                    <mxGeometry x="310" y="1390" width="240" height="60" as="geometry"/>
                </mxCell>
                <mxCell id="130" value="8. (web) 登録の有無を問合せ&#10;11. (API) 登録されていればTrue&#10;12. (web) ユーザの類似性の高いユーザ問合せ&#10;15. (API) ユーザの類似性の高いユーザの提供&#10;20. (web) 登録情報変更問合せ&#10;27. (API) ユーザの類似性の高いユーザの提供&#10;&#10;" style="text;strokeColor=none;fillColor=none;align=left;verticalAlign=middle;spacingLeft=4;spacingRight=4;overflow=hidden;points=[[0,0.5],[1,0.5]];portConstraint=eastwest;rotatable=0;" parent="1" vertex="1">
                    <mxGeometry x="300" y="1545" width="260" height="97.5" as="geometry"/>
                </mxCell>
                <mxCell id="131" value="9. (API) 登録の有無を問合せ&#10;10. (登録DB) 登録されていればTrue&#10;25. (API) 表示名の変更問合せ&#10;26. (登録DB) 完了ならTrue" style="text;strokeColor=none;fillColor=none;align=left;verticalAlign=middle;spacingLeft=4;spacingRight=4;overflow=hidden;points=[[0,0.5],[1,0.5]];portConstraint=eastwest;rotatable=0;" parent="1" vertex="1">
                    <mxGeometry x="597" y="1568.75" width="213" height="61.25" as="geometry"/>
                </mxCell>
                <mxCell id="132" value="13. (API) ユーザのレコード問い合わせ&#10;14. (favDB) あれば返す&#10;23. (API) ユーザレコードの書き換え問合せ&#10;24. (favDB) 差し替え受付, 返却&#10;" style="text;strokeColor=none;fillColor=none;align=left;verticalAlign=middle;spacingLeft=4;spacingRight=4;overflow=hidden;points=[[0,0.5],[1,0.5]];portConstraint=eastwest;rotatable=0;" parent="1" vertex="1">
                    <mxGeometry x="585" y="1405" width="230" height="60" as="geometry"/>
                </mxCell>
                <mxCell id="133" value="" style="endArrow=classic;startArrow=classic;html=1;exitX=0.5;exitY=0;exitDx=0;exitDy=0;entryX=0.5;entryY=1;entryDx=0;entryDy=0;entryPerimeter=0;" parent="1" edge="1">
                    <mxGeometry width="50" height="50" relative="1" as="geometry">
                        <mxPoint x="304.92" y="1475" as="sourcePoint"/>
                        <mxPoint x="304.46999999999997" y="1365" as="targetPoint"/>
                    </mxGeometry>
                </mxCell>
                <mxCell id="134" value="21. (API) 類似アーティストの検索&#10;22. (Spotify) データの提供" style="text;strokeColor=none;fillColor=none;align=left;verticalAlign=middle;spacingLeft=4;spacingRight=4;overflow=hidden;points=[[0,0.5],[1,0.5]];portConstraint=eastwest;rotatable=0;" parent="1" vertex="1">
                    <mxGeometry x="560" y="1330" width="195" height="60" as="geometry"/>
                </mxCell>
                <mxCell id="135" value="" style="endArrow=classic;startArrow=classic;html=1;entryX=0;entryY=0.5;entryDx=0;entryDy=0;exitX=0.9;exitY=0.5;exitDx=0;exitDy=0;exitPerimeter=0;" parent="1" source="119" target="122" edge="1">
                    <mxGeometry width="50" height="50" relative="1" as="geometry">
                        <mxPoint x="81" y="1430" as="sourcePoint"/>
                        <mxPoint x="245" y="1330" as="targetPoint"/>
                    </mxGeometry>
                </mxCell>
                <mxCell id="136" value="" style="endArrow=classic;startArrow=classic;html=1;exitX=0;exitY=0.5;exitDx=0;exitDy=0;entryX=1;entryY=0.75;entryDx=0;entryDy=0;" parent="1" source="121" target="119" edge="1">
                    <mxGeometry width="50" height="50" relative="1" as="geometry">
                        <mxPoint x="244.99999999999991" y="1513.8799999999999" as="sourcePoint"/>
                        <mxPoint x="81.4" y="1450" as="targetPoint"/>
                    </mxGeometry>
                </mxCell>
                <mxCell id="137" value="" style="endArrow=classic;startArrow=classic;html=1;entryX=1;entryY=0.5;entryDx=0;entryDy=0;" parent="1" edge="1">
                    <mxGeometry width="50" height="50" relative="1" as="geometry">
                        <mxPoint x="495" y="1504.47" as="sourcePoint"/>
                        <mxPoint x="365" y="1504.47" as="targetPoint"/>
                    </mxGeometry>
                </mxCell>
                <mxCell id="138" value="" style="endArrow=classic;startArrow=classic;html=1;entryX=1;entryY=0.5;entryDx=0;entryDy=0;exitX=0;exitY=0.5;exitDx=0;exitDy=0;exitPerimeter=0;" parent="1" edge="1">
                    <mxGeometry width="50" height="50" relative="1" as="geometry">
                        <mxPoint x="735" y="1504.47" as="sourcePoint"/>
                        <mxPoint x="614.9999999999998" y="1504.47" as="targetPoint"/>
                    </mxGeometry>
                </mxCell>
                <mxCell id="139" value="" style="endArrow=classic;startArrow=classic;html=1;entryX=0.5;entryY=1;entryDx=0;entryDy=0;exitX=0.145;exitY=0;exitDx=0;exitDy=4.35;exitPerimeter=0;" parent="1" source="120" target="123" edge="1">
                    <mxGeometry width="50" height="50" relative="1" as="geometry">
                        <mxPoint x="579.47" y="1650" as="sourcePoint"/>
                        <mxPoint x="580" y="1535" as="targetPoint"/>
                    </mxGeometry>
                </mxCell>
                <mxCell id="140" value="" style="endArrow=classic;startArrow=classic;html=1;entryX=0.5;entryY=1;entryDx=0;entryDy=0;exitX=0.5;exitY=0;exitDx=0;exitDy=0;entryPerimeter=0;" parent="1" source="123" target="117" edge="1">
                    <mxGeometry width="50" height="50" relative="1" as="geometry">
                        <mxPoint x="558.95" y="1465.0000000000002" as="sourcePoint"/>
                        <mxPoint x="559.95" y="1335.95" as="targetPoint"/>
                    </mxGeometry>
                </mxCell>
                <mxCell id="142" value="9. (API) 登録の有無を問合せ&#10;10.(登録DB) 登録されていればTrue&#10;13. (API) ユーザの表示名問合せ&#10;14. (登録DB) 表示名を返す&#10;" style="text;strokeColor=none;fillColor=none;align=left;verticalAlign=middle;spacingLeft=4;spacingRight=4;overflow=hidden;points=[[0,0.5],[1,0.5]];portConstraint=eastwest;rotatable=0;" vertex="1" parent="1">
                    <mxGeometry x="610.5" y="840" width="203" height="60" as="geometry"/>
                </mxCell>
            </root>
        </mxGraphModel>
    </diagram>
</mxfile>